<mxfile host="app.diagrams.net" modified="2023-07-08T09:38:10.819Z" agent="Mozilla/5.0 (Windows NT 10.0; Win64; x64) AppleWebKit/537.36 (KHTML, like Gecko) Chrome/114.0.0.0 Safari/537.36" etag="uxMP3ZvDVnKXAU9YFuKr" version="21.6.1" type="device">
  <diagram name="Page-1" id="c4acf3e9-155e-7222-9cf6-157b1a14988f">
    <mxGraphModel dx="4622" dy="1340" grid="1" gridSize="10" guides="1" tooltips="1" connect="1" arrows="1" fold="1" page="1" pageScale="1" pageWidth="850" pageHeight="1100" background="none" math="0" shadow="0">
      <root>
        <mxCell id="0" />
        <mxCell id="1" parent="0" />
        <mxCell id="nMpmkXqHEecMJ4cSt8aj-1" value="&lt;p style=&quot;margin:0px;margin-top:4px;text-align:center;&quot;&gt;&lt;i&gt;&amp;lt;&amp;lt;Interface&amp;gt;&amp;gt;&lt;/i&gt;&lt;br&gt;&lt;b&gt;rateService&lt;/b&gt;&lt;br&gt;&lt;/p&gt;&lt;hr size=&quot;1&quot;&gt;&lt;p style=&quot;margin:0px;margin-left:4px;&quot;&gt;+ CurrentBTCRate() (Price, error)&lt;br&gt;&lt;/p&gt;&lt;p style=&quot;margin:0px;margin-left:4px;&quot;&gt;&lt;br&gt;&lt;/p&gt;" style="verticalAlign=top;align=left;overflow=fill;fontSize=12;fontFamily=Helvetica;html=1;rounded=0;shadow=0;comic=0;labelBackgroundColor=none;strokeWidth=1" vertex="1" parent="1">
          <mxGeometry x="-1280" y="420" width="230" height="80" as="geometry" />
        </mxCell>
        <mxCell id="nMpmkXqHEecMJ4cSt8aj-18" style="edgeStyle=orthogonalEdgeStyle;rounded=0;orthogonalLoop=1;jettySize=auto;html=1;entryX=0.5;entryY=0;entryDx=0;entryDy=0;" edge="1" parent="1" source="nMpmkXqHEecMJ4cSt8aj-2" target="nMpmkXqHEecMJ4cSt8aj-5">
          <mxGeometry relative="1" as="geometry" />
        </mxCell>
        <mxCell id="nMpmkXqHEecMJ4cSt8aj-22" value="" style="edgeStyle=orthogonalEdgeStyle;rounded=0;orthogonalLoop=1;jettySize=auto;html=1;" edge="1" parent="1" source="nMpmkXqHEecMJ4cSt8aj-2" target="nMpmkXqHEecMJ4cSt8aj-6">
          <mxGeometry relative="1" as="geometry" />
        </mxCell>
        <mxCell id="nMpmkXqHEecMJ4cSt8aj-23" value="" style="edgeStyle=orthogonalEdgeStyle;rounded=0;orthogonalLoop=1;jettySize=auto;html=1;" edge="1" parent="1" source="nMpmkXqHEecMJ4cSt8aj-2" target="nMpmkXqHEecMJ4cSt8aj-6">
          <mxGeometry relative="1" as="geometry" />
        </mxCell>
        <mxCell id="nMpmkXqHEecMJ4cSt8aj-2" value="" style="shape=umlActor;verticalLabelPosition=bottom;verticalAlign=top;html=1;outlineConnect=0;" vertex="1" parent="1">
          <mxGeometry x="-850" y="40" width="30" height="60" as="geometry" />
        </mxCell>
        <mxCell id="nMpmkXqHEecMJ4cSt8aj-19" style="edgeStyle=orthogonalEdgeStyle;rounded=0;orthogonalLoop=1;jettySize=auto;html=1;entryX=0.5;entryY=0;entryDx=0;entryDy=0;" edge="1" parent="1" source="nMpmkXqHEecMJ4cSt8aj-5" target="nMpmkXqHEecMJ4cSt8aj-9">
          <mxGeometry relative="1" as="geometry" />
        </mxCell>
        <mxCell id="nMpmkXqHEecMJ4cSt8aj-20" style="edgeStyle=orthogonalEdgeStyle;rounded=0;orthogonalLoop=1;jettySize=auto;html=1;entryX=0.5;entryY=0;entryDx=0;entryDy=0;" edge="1" parent="1" source="nMpmkXqHEecMJ4cSt8aj-5" target="nMpmkXqHEecMJ4cSt8aj-7">
          <mxGeometry relative="1" as="geometry" />
        </mxCell>
        <mxCell id="nMpmkXqHEecMJ4cSt8aj-21" style="edgeStyle=orthogonalEdgeStyle;rounded=0;orthogonalLoop=1;jettySize=auto;html=1;entryX=0.5;entryY=0;entryDx=0;entryDy=0;" edge="1" parent="1" source="nMpmkXqHEecMJ4cSt8aj-5" target="nMpmkXqHEecMJ4cSt8aj-16">
          <mxGeometry relative="1" as="geometry" />
        </mxCell>
        <mxCell id="nMpmkXqHEecMJ4cSt8aj-5" value="" style="rounded=0;whiteSpace=wrap;html=1;" vertex="1" parent="1">
          <mxGeometry x="-895" y="140" width="120" height="60" as="geometry" />
        </mxCell>
        <mxCell id="nMpmkXqHEecMJ4cSt8aj-6" value="Controller" style="text;html=1;strokeColor=none;fillColor=none;align=center;verticalAlign=middle;whiteSpace=wrap;rounded=0;" vertex="1" parent="1">
          <mxGeometry x="-865" y="155" width="60" height="30" as="geometry" />
        </mxCell>
        <mxCell id="nMpmkXqHEecMJ4cSt8aj-27" style="edgeStyle=orthogonalEdgeStyle;rounded=0;orthogonalLoop=1;jettySize=auto;html=1;entryX=0.5;entryY=0;entryDx=0;entryDy=0;" edge="1" parent="1" source="nMpmkXqHEecMJ4cSt8aj-7" target="nMpmkXqHEecMJ4cSt8aj-1">
          <mxGeometry relative="1" as="geometry">
            <Array as="points">
              <mxPoint x="-1165" y="258" />
            </Array>
          </mxGeometry>
        </mxCell>
        <mxCell id="nMpmkXqHEecMJ4cSt8aj-7" value="" style="rhombus;whiteSpace=wrap;html=1;" vertex="1" parent="1">
          <mxGeometry x="-1110" y="230" width="130" height="55" as="geometry" />
        </mxCell>
        <mxCell id="nMpmkXqHEecMJ4cSt8aj-8" value="/rate" style="text;html=1;strokeColor=none;fillColor=none;align=center;verticalAlign=middle;whiteSpace=wrap;rounded=0;" vertex="1" parent="1">
          <mxGeometry x="-1075" y="242.5" width="60" height="30" as="geometry" />
        </mxCell>
        <mxCell id="nMpmkXqHEecMJ4cSt8aj-31" style="edgeStyle=orthogonalEdgeStyle;rounded=0;orthogonalLoop=1;jettySize=auto;html=1;entryX=0.586;entryY=-0.022;entryDx=0;entryDy=0;entryPerimeter=0;" edge="1" parent="1" source="nMpmkXqHEecMJ4cSt8aj-9" target="nMpmkXqHEecMJ4cSt8aj-24">
          <mxGeometry relative="1" as="geometry" />
        </mxCell>
        <mxCell id="nMpmkXqHEecMJ4cSt8aj-9" value="" style="rhombus;whiteSpace=wrap;html=1;" vertex="1" parent="1">
          <mxGeometry x="-900" y="230" width="130" height="55" as="geometry" />
        </mxCell>
        <mxCell id="nMpmkXqHEecMJ4cSt8aj-10" value="/subscribe" style="text;html=1;strokeColor=none;fillColor=none;align=center;verticalAlign=middle;whiteSpace=wrap;rounded=0;" vertex="1" parent="1">
          <mxGeometry x="-865" y="242.5" width="60" height="30" as="geometry" />
        </mxCell>
        <mxCell id="nMpmkXqHEecMJ4cSt8aj-32" style="edgeStyle=orthogonalEdgeStyle;rounded=0;orthogonalLoop=1;jettySize=auto;html=1;entryX=0.585;entryY=-0.033;entryDx=0;entryDy=0;entryPerimeter=0;" edge="1" parent="1" source="nMpmkXqHEecMJ4cSt8aj-16" target="nMpmkXqHEecMJ4cSt8aj-25">
          <mxGeometry relative="1" as="geometry">
            <Array as="points">
              <mxPoint x="-508" y="258" />
            </Array>
          </mxGeometry>
        </mxCell>
        <mxCell id="nMpmkXqHEecMJ4cSt8aj-16" value="" style="rhombus;whiteSpace=wrap;html=1;" vertex="1" parent="1">
          <mxGeometry x="-690" y="230" width="130" height="55" as="geometry" />
        </mxCell>
        <mxCell id="nMpmkXqHEecMJ4cSt8aj-33" style="edgeStyle=orthogonalEdgeStyle;rounded=0;orthogonalLoop=1;jettySize=auto;html=1;entryX=0.975;entryY=-0.033;entryDx=0;entryDy=0;entryPerimeter=0;exitX=0;exitY=0.5;exitDx=0;exitDy=0;" edge="1" parent="1" source="nMpmkXqHEecMJ4cSt8aj-16" target="nMpmkXqHEecMJ4cSt8aj-24">
          <mxGeometry relative="1" as="geometry">
            <mxPoint x="-680" y="258" as="sourcePoint" />
          </mxGeometry>
        </mxCell>
        <mxCell id="nMpmkXqHEecMJ4cSt8aj-17" value="/sendEmails" style="text;html=1;strokeColor=none;fillColor=none;align=center;verticalAlign=middle;whiteSpace=wrap;rounded=0;" vertex="1" parent="1">
          <mxGeometry x="-655" y="242.5" width="60" height="30" as="geometry" />
        </mxCell>
        <mxCell id="nMpmkXqHEecMJ4cSt8aj-24" value="&lt;p style=&quot;margin:0px;margin-top:4px;text-align:center;&quot;&gt;&lt;i&gt;&amp;lt;&amp;lt;Interface&amp;gt;&amp;gt;&lt;/i&gt;&lt;br&gt;&lt;b&gt;subscriptionService&lt;/b&gt;&lt;br&gt;&lt;/p&gt;&lt;hr size=&quot;1&quot;&gt;&lt;p style=&quot;margin:0px;margin-left:4px;&quot;&gt;+&amp;nbsp;SubscribeUser(User)&amp;nbsp;error&lt;br&gt;&lt;/p&gt;&lt;p style=&quot;margin:0px;margin-left:4px;&quot;&gt;+&amp;nbsp;All(func(User) bool) ([]User, error)&lt;/p&gt;" style="verticalAlign=top;align=left;overflow=fill;fontSize=12;fontFamily=Helvetica;html=1;rounded=0;shadow=0;comic=0;labelBackgroundColor=none;strokeWidth=1" vertex="1" parent="1">
          <mxGeometry x="-970" y="420" width="230" height="80" as="geometry" />
        </mxCell>
        <mxCell id="nMpmkXqHEecMJ4cSt8aj-25" value="&lt;p style=&quot;margin:0px;margin-top:4px;text-align:center;&quot;&gt;&lt;i&gt;&amp;lt;&amp;lt;Interface&amp;gt;&amp;gt;&lt;/i&gt;&lt;br&gt;&lt;b&gt;notifierService&lt;/b&gt;&lt;br&gt;&lt;/p&gt;&lt;hr size=&quot;1&quot;&gt;&lt;p style=&quot;margin:0px;margin-left:4px;&quot;&gt;+&amp;nbsp;NotifyBTCPrice([]entities.User, entities.Price)&lt;/p&gt;" style="verticalAlign=top;align=left;overflow=fill;fontSize=12;fontFamily=Helvetica;html=1;rounded=0;shadow=0;comic=0;labelBackgroundColor=none;strokeWidth=1" vertex="1" parent="1">
          <mxGeometry x="-660" y="420" width="260" height="80" as="geometry" />
        </mxCell>
        <mxCell id="nMpmkXqHEecMJ4cSt8aj-34" value="&lt;p style=&quot;margin:0px;margin-top:4px;text-align:center;&quot;&gt;&lt;b&gt;currencyRateService&lt;/b&gt;&lt;br&gt;&lt;/p&gt;&lt;hr size=&quot;1&quot;&gt;&lt;p style=&quot;margin:0px;margin-left:4px;&quot;&gt;-&amp;nbsp;p provider&lt;/p&gt;&lt;p style=&quot;margin:0px;margin-left:4px;&quot;&gt;+ CurrentBTCRate() (Price, error)&lt;br&gt;&lt;/p&gt;&lt;p style=&quot;margin:0px;margin-left:4px;&quot;&gt;&lt;br&gt;&lt;/p&gt;" style="verticalAlign=top;align=left;overflow=fill;fontSize=12;fontFamily=Helvetica;html=1;rounded=0;shadow=0;comic=0;labelBackgroundColor=none;strokeWidth=1" vertex="1" parent="1">
          <mxGeometry x="-1280" y="550" width="230" height="80" as="geometry" />
        </mxCell>
        <mxCell id="nMpmkXqHEecMJ4cSt8aj-35" value="" style="endArrow=block;dashed=1;endFill=0;endSize=12;html=1;rounded=0;exitX=0.5;exitY=0;exitDx=0;exitDy=0;entryX=0.5;entryY=1;entryDx=0;entryDy=0;" edge="1" parent="1" source="nMpmkXqHEecMJ4cSt8aj-34" target="nMpmkXqHEecMJ4cSt8aj-1">
          <mxGeometry width="160" relative="1" as="geometry">
            <mxPoint x="-900" y="670" as="sourcePoint" />
            <mxPoint x="-740" y="670" as="targetPoint" />
          </mxGeometry>
        </mxCell>
        <mxCell id="nMpmkXqHEecMJ4cSt8aj-36" value="&lt;p style=&quot;margin:0px;margin-top:4px;text-align:center;&quot;&gt;&lt;i style=&quot;border-color: var(--border-color);&quot;&gt;&amp;lt;&amp;lt;Interface&amp;gt;&amp;gt;&lt;/i&gt;&lt;b&gt;&lt;br&gt;&lt;/b&gt;&lt;/p&gt;&lt;p style=&quot;margin:0px;margin-top:4px;text-align:center;&quot;&gt;&lt;b&gt;provider&lt;/b&gt;&lt;br&gt;&lt;/p&gt;&lt;hr size=&quot;1&quot;&gt;&lt;p style=&quot;margin:0px;margin-left:4px;&quot;&gt;&lt;span style=&quot;background-color: initial;&quot;&gt;+ CurrentRate(Symbol, Symbol) (Price, error)&lt;/span&gt;&lt;/p&gt;" style="verticalAlign=top;align=left;overflow=fill;fontSize=12;fontFamily=Helvetica;html=1;rounded=0;shadow=0;comic=0;labelBackgroundColor=none;strokeWidth=1" vertex="1" parent="1">
          <mxGeometry x="-1290" y="690" width="250" height="80" as="geometry" />
        </mxCell>
        <mxCell id="nMpmkXqHEecMJ4cSt8aj-38" value="1" style="endArrow=open;html=1;endSize=12;startArrow=diamondThin;startSize=14;startFill=0;edgeStyle=orthogonalEdgeStyle;align=left;verticalAlign=bottom;rounded=0;exitX=0.5;exitY=1;exitDx=0;exitDy=0;entryX=0.5;entryY=0;entryDx=0;entryDy=0;" edge="1" parent="1" source="nMpmkXqHEecMJ4cSt8aj-34" target="nMpmkXqHEecMJ4cSt8aj-36">
          <mxGeometry x="-1" y="3" relative="1" as="geometry">
            <mxPoint x="-900" y="670" as="sourcePoint" />
            <mxPoint x="-740" y="670" as="targetPoint" />
            <mxPoint as="offset" />
          </mxGeometry>
        </mxCell>
        <mxCell id="nMpmkXqHEecMJ4cSt8aj-40" value="&lt;p style=&quot;margin:0px;margin-top:4px;text-align:center;&quot;&gt;&lt;b style=&quot;background-color: initial;&quot;&gt;KucoinProvider&lt;/b&gt;&lt;br&gt;&lt;/p&gt;&lt;hr size=&quot;1&quot;&gt;&lt;p style=&quot;margin:0px;margin-left:4px;&quot;&gt;&lt;span style=&quot;background-color: initial;&quot;&gt;+ CurrentRate(Symbol, Symbol) (Price, error)&lt;/span&gt;&lt;/p&gt;" style="verticalAlign=top;align=left;overflow=fill;fontSize=12;fontFamily=Helvetica;html=1;rounded=0;shadow=0;comic=0;labelBackgroundColor=none;strokeWidth=1" vertex="1" parent="1">
          <mxGeometry x="-1610" y="690" width="250" height="60" as="geometry" />
        </mxCell>
        <mxCell id="nMpmkXqHEecMJ4cSt8aj-42" value="&lt;p style=&quot;margin:0px;margin-top:4px;text-align:center;&quot;&gt;&lt;b&gt;CoinstatsProvider&lt;/b&gt;&lt;br&gt;&lt;/p&gt;&lt;hr size=&quot;1&quot;&gt;&lt;p style=&quot;margin:0px;margin-left:4px;&quot;&gt;&lt;span style=&quot;background-color: initial;&quot;&gt;+ CurrentRate(Symbol, Symbol) (Price, error)&lt;/span&gt;&lt;/p&gt;" style="verticalAlign=top;align=left;overflow=fill;fontSize=12;fontFamily=Helvetica;html=1;rounded=0;shadow=0;comic=0;labelBackgroundColor=none;strokeWidth=1" vertex="1" parent="1">
          <mxGeometry x="-1290" y="840" width="250" height="60" as="geometry" />
        </mxCell>
        <mxCell id="nMpmkXqHEecMJ4cSt8aj-43" value="&lt;p style=&quot;margin:0px;margin-top:4px;text-align:center;&quot;&gt;&lt;b&gt;CoingeckoProvider&lt;/b&gt;&lt;br&gt;&lt;/p&gt;&lt;hr size=&quot;1&quot;&gt;&lt;p style=&quot;margin:0px;margin-left:4px;&quot;&gt;&lt;span style=&quot;background-color: initial;&quot;&gt;+ CurrentRate(Symbol, Symbol) (Price, error)&lt;/span&gt;&lt;/p&gt;" style="verticalAlign=top;align=left;overflow=fill;fontSize=12;fontFamily=Helvetica;html=1;rounded=0;shadow=0;comic=0;labelBackgroundColor=none;strokeWidth=1" vertex="1" parent="1">
          <mxGeometry x="-1600" y="810" width="250" height="60" as="geometry" />
        </mxCell>
        <mxCell id="nMpmkXqHEecMJ4cSt8aj-44" value="" style="endArrow=block;dashed=1;endFill=0;endSize=12;html=1;rounded=0;exitX=0.5;exitY=0;exitDx=0;exitDy=0;entryX=0.5;entryY=1;entryDx=0;entryDy=0;" edge="1" parent="1" source="nMpmkXqHEecMJ4cSt8aj-42" target="nMpmkXqHEecMJ4cSt8aj-36">
          <mxGeometry width="160" relative="1" as="geometry">
            <mxPoint x="-1415" y="890" as="sourcePoint" />
            <mxPoint x="-1155" y="780" as="targetPoint" />
          </mxGeometry>
        </mxCell>
        <mxCell id="nMpmkXqHEecMJ4cSt8aj-46" value="&lt;p style=&quot;margin:0px;margin-top:4px;text-align:center;&quot;&gt;&lt;b&gt;subscriptionService&lt;/b&gt;&lt;br&gt;&lt;/p&gt;&lt;hr size=&quot;1&quot;&gt;&lt;p style=&quot;margin:0px;margin-left:4px;&quot;&gt;- us userStorage&lt;/p&gt;&lt;p style=&quot;margin:0px;margin-left:4px;&quot;&gt;-&amp;nbsp;isUserAlreadySubscribed(User) bool&lt;/p&gt;&lt;p style=&quot;margin:0px;margin-left:4px;&quot;&gt;+&amp;nbsp;SubscribeUser(User)&amp;nbsp;error&lt;br&gt;&lt;/p&gt;&lt;p style=&quot;margin:0px;margin-left:4px;&quot;&gt;+&amp;nbsp;All(func(User) bool) ([]User, error)&lt;/p&gt;" style="verticalAlign=top;align=left;overflow=fill;fontSize=12;fontFamily=Helvetica;html=1;rounded=0;shadow=0;comic=0;labelBackgroundColor=none;strokeWidth=1" vertex="1" parent="1">
          <mxGeometry x="-970" y="550" width="230" height="110" as="geometry" />
        </mxCell>
        <mxCell id="nMpmkXqHEecMJ4cSt8aj-47" value="" style="endArrow=block;dashed=1;endFill=0;endSize=12;html=1;rounded=0;exitX=0.5;exitY=0;exitDx=0;exitDy=0;entryX=0.5;entryY=1;entryDx=0;entryDy=0;" edge="1" parent="1">
          <mxGeometry width="160" relative="1" as="geometry">
            <mxPoint x="-855.5" y="550" as="sourcePoint" />
            <mxPoint x="-855.5" y="500" as="targetPoint" />
          </mxGeometry>
        </mxCell>
        <mxCell id="nMpmkXqHEecMJ4cSt8aj-48" style="edgeStyle=orthogonalEdgeStyle;rounded=0;orthogonalLoop=1;jettySize=auto;html=1;exitX=0.5;exitY=1;exitDx=0;exitDy=0;" edge="1" parent="1" source="nMpmkXqHEecMJ4cSt8aj-46" target="nMpmkXqHEecMJ4cSt8aj-46">
          <mxGeometry relative="1" as="geometry" />
        </mxCell>
        <mxCell id="nMpmkXqHEecMJ4cSt8aj-51" value="&lt;p style=&quot;margin:0px;margin-top:4px;text-align:center;&quot;&gt;&lt;i style=&quot;border-color: var(--border-color);&quot;&gt;&amp;lt;&amp;lt;Interface&amp;gt;&amp;gt;&lt;/i&gt;&lt;b&gt;&lt;br&gt;&lt;/b&gt;&lt;/p&gt;&lt;p style=&quot;margin:0px;margin-top:4px;text-align:center;&quot;&gt;&lt;b&gt;userStorage&lt;/b&gt;&lt;br&gt;&lt;/p&gt;&lt;hr size=&quot;1&quot;&gt;&lt;p style=&quot;margin:0px;margin-left:4px;&quot;&gt;+&amp;nbsp;GetAll() ([]User, error)&lt;/p&gt;&lt;p style=&quot;margin:0px;margin-left:4px;&quot;&gt;+&amp;nbsp;Create(User) error&lt;/p&gt;" style="verticalAlign=top;align=left;overflow=fill;fontSize=12;fontFamily=Helvetica;html=1;rounded=0;shadow=0;comic=0;labelBackgroundColor=none;strokeWidth=1" vertex="1" parent="1">
          <mxGeometry x="-970" y="700" width="230" height="90" as="geometry" />
        </mxCell>
        <mxCell id="nMpmkXqHEecMJ4cSt8aj-53" value="1" style="endArrow=open;html=1;endSize=12;startArrow=diamondThin;startSize=14;startFill=0;edgeStyle=orthogonalEdgeStyle;align=left;verticalAlign=bottom;rounded=0;exitX=0.465;exitY=1.005;exitDx=0;exitDy=0;exitPerimeter=0;" edge="1" parent="1" source="nMpmkXqHEecMJ4cSt8aj-46">
          <mxGeometry x="-1" y="3" relative="1" as="geometry">
            <mxPoint x="-870" y="800" as="sourcePoint" />
            <mxPoint x="-863" y="700" as="targetPoint" />
          </mxGeometry>
        </mxCell>
        <mxCell id="nMpmkXqHEecMJ4cSt8aj-54" value="" style="endArrow=block;dashed=1;endFill=0;endSize=12;html=1;rounded=0;exitX=1.011;exitY=0.62;exitDx=0;exitDy=0;exitPerimeter=0;entryX=0;entryY=0.5;entryDx=0;entryDy=0;" edge="1" parent="1" source="nMpmkXqHEecMJ4cSt8aj-40" target="nMpmkXqHEecMJ4cSt8aj-36">
          <mxGeometry width="160" relative="1" as="geometry">
            <mxPoint x="-1360" y="780" as="sourcePoint" />
            <mxPoint x="-1300" y="690" as="targetPoint" />
            <Array as="points" />
          </mxGeometry>
        </mxCell>
        <mxCell id="nMpmkXqHEecMJ4cSt8aj-55" value="" style="endArrow=block;dashed=1;endFill=0;endSize=12;html=1;rounded=0;exitX=1;exitY=0;exitDx=0;exitDy=0;entryX=-0.007;entryY=0.613;entryDx=0;entryDy=0;entryPerimeter=0;" edge="1" parent="1" source="nMpmkXqHEecMJ4cSt8aj-43" target="nMpmkXqHEecMJ4cSt8aj-36">
          <mxGeometry width="160" relative="1" as="geometry">
            <mxPoint x="-1280" y="740" as="sourcePoint" />
            <mxPoint x="-1300" y="790" as="targetPoint" />
          </mxGeometry>
        </mxCell>
        <mxCell id="nMpmkXqHEecMJ4cSt8aj-60" style="edgeStyle=orthogonalEdgeStyle;rounded=0;orthogonalLoop=1;jettySize=auto;html=1;entryX=0.5;entryY=0;entryDx=0;entryDy=0;" edge="1" parent="1" source="nMpmkXqHEecMJ4cSt8aj-56" target="nMpmkXqHEecMJ4cSt8aj-58">
          <mxGeometry relative="1" as="geometry" />
        </mxCell>
        <mxCell id="nMpmkXqHEecMJ4cSt8aj-56" value="&lt;p style=&quot;margin:0px;margin-top:4px;text-align:center;&quot;&gt;&lt;b&gt;JsonFileUserStorage&lt;/b&gt;&lt;br&gt;&lt;/p&gt;&lt;hr size=&quot;1&quot;&gt;&lt;p style=&quot;border-color: var(--border-color); margin: 0px 0px 0px 4px;&quot;&gt;-&amp;nbsp;writeUsers(users []User) error&lt;/p&gt;&lt;p style=&quot;border-color: var(--border-color); margin: 0px 0px 0px 4px;&quot;&gt;+&amp;nbsp;GetAll() ([]User, error)&lt;/p&gt;&lt;p style=&quot;border-color: var(--border-color); margin: 0px 0px 0px 4px;&quot;&gt;+&amp;nbsp;Create(User) error&lt;/p&gt;" style="verticalAlign=top;align=left;overflow=fill;fontSize=12;fontFamily=Helvetica;html=1;rounded=0;shadow=0;comic=0;labelBackgroundColor=none;strokeWidth=1" vertex="1" parent="1">
          <mxGeometry x="-970" y="840" width="230" height="80" as="geometry" />
        </mxCell>
        <mxCell id="nMpmkXqHEecMJ4cSt8aj-57" value="" style="endArrow=block;dashed=1;endFill=0;endSize=12;html=1;rounded=0;exitX=0.5;exitY=0;exitDx=0;exitDy=0;entryX=0.5;entryY=1;entryDx=0;entryDy=0;" edge="1" parent="1" source="nMpmkXqHEecMJ4cSt8aj-56" target="nMpmkXqHEecMJ4cSt8aj-51">
          <mxGeometry width="160" relative="1" as="geometry">
            <mxPoint x="-1155" y="870" as="sourcePoint" />
            <mxPoint x="-1155" y="800" as="targetPoint" />
          </mxGeometry>
        </mxCell>
        <mxCell id="nMpmkXqHEecMJ4cSt8aj-58" value="" style="shape=datastore;whiteSpace=wrap;html=1;" vertex="1" parent="1">
          <mxGeometry x="-907.5" y="970" width="105" height="110" as="geometry" />
        </mxCell>
        <mxCell id="nMpmkXqHEecMJ4cSt8aj-59" value="users.json" style="text;html=1;strokeColor=none;fillColor=none;align=center;verticalAlign=middle;whiteSpace=wrap;rounded=0;" vertex="1" parent="1">
          <mxGeometry x="-885" y="1020" width="60" height="30" as="geometry" />
        </mxCell>
        <mxCell id="nMpmkXqHEecMJ4cSt8aj-63" value="&lt;p style=&quot;margin:0px;margin-top:4px;text-align:center;&quot;&gt;&lt;b&gt;notifierService&lt;/b&gt;&lt;br&gt;&lt;/p&gt;&lt;hr size=&quot;1&quot;&gt;&lt;p style=&quot;margin:0px;margin-left:4px;&quot;&gt;+&amp;nbsp;NotifyBTCPrice([]entities.User, entities.Price)&lt;/p&gt;" style="verticalAlign=top;align=left;overflow=fill;fontSize=12;fontFamily=Helvetica;html=1;rounded=0;shadow=0;comic=0;labelBackgroundColor=none;strokeWidth=1" vertex="1" parent="1">
          <mxGeometry x="-660" y="550" width="260" height="60" as="geometry" />
        </mxCell>
        <mxCell id="nMpmkXqHEecMJ4cSt8aj-64" value="" style="endArrow=block;dashed=1;endFill=0;endSize=12;html=1;rounded=0;exitX=0.5;exitY=0;exitDx=0;exitDy=0;entryX=0.5;entryY=1;entryDx=0;entryDy=0;" edge="1" parent="1" source="nMpmkXqHEecMJ4cSt8aj-63" target="nMpmkXqHEecMJ4cSt8aj-25">
          <mxGeometry width="160" relative="1" as="geometry">
            <mxPoint x="-845.5" y="560" as="sourcePoint" />
            <mxPoint x="-845.5" y="510" as="targetPoint" />
          </mxGeometry>
        </mxCell>
        <mxCell id="nMpmkXqHEecMJ4cSt8aj-66" value="&lt;p style=&quot;margin:0px;margin-top:4px;text-align:center;&quot;&gt;&lt;i style=&quot;border-color: var(--border-color);&quot;&gt;&amp;lt;&amp;lt;Interface&amp;gt;&amp;gt;&lt;/i&gt;&lt;b&gt;&lt;br&gt;&lt;/b&gt;&lt;/p&gt;&lt;p style=&quot;margin:0px;margin-top:4px;text-align:center;&quot;&gt;&lt;b&gt;notifier&lt;/b&gt;&lt;br&gt;&lt;/p&gt;&lt;hr size=&quot;1&quot;&gt;&lt;p style=&quot;margin:0px;margin-left:4px;&quot;&gt;+&amp;nbsp;Notify(to string, title, body string) error&lt;/p&gt;" style="verticalAlign=top;align=left;overflow=fill;fontSize=12;fontFamily=Helvetica;html=1;rounded=0;shadow=0;comic=0;labelBackgroundColor=none;strokeWidth=1" vertex="1" parent="1">
          <mxGeometry x="-660" y="660" width="260" height="80" as="geometry" />
        </mxCell>
        <mxCell id="nMpmkXqHEecMJ4cSt8aj-68" value="1" style="endArrow=open;html=1;endSize=12;startArrow=diamondThin;startSize=14;startFill=0;edgeStyle=orthogonalEdgeStyle;align=left;verticalAlign=bottom;rounded=0;exitX=0.5;exitY=1;exitDx=0;exitDy=0;entryX=0.5;entryY=0;entryDx=0;entryDy=0;" edge="1" parent="1" source="nMpmkXqHEecMJ4cSt8aj-63" target="nMpmkXqHEecMJ4cSt8aj-66">
          <mxGeometry x="-1" y="3" relative="1" as="geometry">
            <mxPoint x="-853" y="650" as="sourcePoint" />
            <mxPoint x="-853" y="690" as="targetPoint" />
          </mxGeometry>
        </mxCell>
        <mxCell id="nMpmkXqHEecMJ4cSt8aj-69" value="&lt;p style=&quot;margin:0px;margin-top:4px;text-align:center;&quot;&gt;&lt;b style=&quot;background-color: initial;&quot;&gt;GmailNotifier&lt;/b&gt;&lt;br&gt;&lt;/p&gt;&lt;hr size=&quot;1&quot;&gt;&lt;p style=&quot;margin:0px;margin-left:4px;&quot;&gt;- gmail string&lt;/p&gt;&lt;p style=&quot;margin:0px;margin-left:4px;&quot;&gt;&lt;span style=&quot;background-color: initial;&quot;&gt;- gmailServer string&lt;/span&gt;&lt;/p&gt;&lt;p style=&quot;margin:0px;margin-left:4px;&quot;&gt;&lt;span style=&quot;white-space-collapse: preserve;&quot;&gt;- &lt;/span&gt;auth smtp.Auth&lt;/p&gt;&lt;p style=&quot;margin:0px;margin-left:4px;&quot;&gt;&lt;span style=&quot;white-space-collapse: preserve;&quot;&gt;- &lt;/span&gt;letterTemplate string&lt;/p&gt;&lt;p style=&quot;margin:0px;margin-left:4px;&quot;&gt;+&amp;nbsp;Notify(to string, title, body string) error&lt;/p&gt;" style="verticalAlign=top;align=left;overflow=fill;fontSize=12;fontFamily=Helvetica;html=1;rounded=0;shadow=0;comic=0;labelBackgroundColor=none;strokeWidth=1" vertex="1" parent="1">
          <mxGeometry x="-660" y="790" width="260" height="110" as="geometry" />
        </mxCell>
        <mxCell id="nMpmkXqHEecMJ4cSt8aj-70" value="" style="endArrow=block;dashed=1;endFill=0;endSize=12;html=1;rounded=0;exitX=0.5;exitY=0;exitDx=0;exitDy=0;entryX=0.5;entryY=1;entryDx=0;entryDy=0;" edge="1" parent="1" source="nMpmkXqHEecMJ4cSt8aj-69" target="nMpmkXqHEecMJ4cSt8aj-66">
          <mxGeometry width="160" relative="1" as="geometry">
            <mxPoint x="-845" y="850" as="sourcePoint" />
            <mxPoint x="-845" y="800" as="targetPoint" />
          </mxGeometry>
        </mxCell>
      </root>
    </mxGraphModel>
  </diagram>
</mxfile>
